<svg xmlns="http://www.w3.org/2000/svg" width="396pt" height="404pt" viewBox="0 0 396 404" font-family="Times New Roman, Times, serif" fill="#000">
  <defs>
    <marker id="a" viewBox="0 0 8 6" refX="7.4" refY="3" markerWidth="5.5" markerHeight="4" orient="auto">
      <path d="M0 0 L8 3 L0 6 z" fill="#000"/></marker>
    <marker id="ag" viewBox="0 0 8 6" refX="7.4" refY="3" markerWidth="5" markerHeight="3.6" orient="auto">
      <path d="M0 0 L8 3 L0 6 z" fill="#666"/></marker>
  </defs>
  <text x="2" y="11" font-size="7.6" text-anchor="start" font-style="italic">(a)</text>
  <text x="14" y="11" font-size="6.6" text-anchor="start">one tiling choice lowers the operator into tile events; a stage is a vocabulary entry, not a box in the code</text>
  <rect x="4" y="18" width="86" height="62" fill="none" stroke="#666" stroke-width="0.5" stroke-dasharray="2.5 1.5"/>
  <text x="47" y="27" font-size="6.0" text-anchor="middle" font-style="italic" fill="#333">declared, never hard-coded</text>
  <text x="8" y="36.0" font-size="5.9" text-anchor="start">shape  bs/rank, h, I, topk, routing</text>
  <text x="8" y="43.4" font-size="5.9" text-anchor="start">hardware  28 AIC, 2 AIV/core,</text>
  <text x="8" y="50.8" font-size="5.9" text-anchor="start">   BW_L1_GM, BW_UB, BW_REMOTE</text>
  <text x="8" y="58.2" font-size="5.9" text-anchor="start">orchestration  tile size, wave</text>
  <text x="8" y="65.6" font-size="5.9" text-anchor="start">   split, steal, late binding</text>
  <text x="8" y="73.0" font-size="5.9" text-anchor="start">stage vocabulary  per implementation</text>
  <path d="M90 49 L110 49" fill="none" stroke="#666" stroke-width="0.6" marker-end="url(#ag)"/>
  <text x="100" y="46" font-size="5.8" text-anchor="middle" font-style="italic" fill="#333">lower</text>
  <rect x="114" y="30" width="48" height="38" fill="none" stroke="#666" stroke-width="0.5" stroke-dasharray="2 1.4"/>
  <text x="138.0" y="26" font-size="6.4" text-anchor="middle">dispatch</text>
  <text x="138.0" y="65" font-size="5.6" text-anchor="middle" font-style="italic" fill="#333">peerwrite</text>
  <rect x="120" y="38" width="9" height="8" fill="#e8e8e8" stroke="#000" stroke-width="0.5"/>
  <rect x="132" y="38" width="9" height="8" fill="#e8e8e8" stroke="#000" stroke-width="0.5"/>
  <rect x="144" y="38" width="9" height="8" fill="#e8e8e8" stroke="#000" stroke-width="0.5"/>
  <text x="138.0" y="57" font-size="5.6" text-anchor="middle">× n tiles · unit m-group</text>
  <rect x="172" y="30" width="48" height="38" fill="none" stroke="#666" stroke-width="0.5" stroke-dasharray="2 1.4"/>
  <text x="196.0" y="26" font-size="6.4" text-anchor="middle">gmm1</text>
  <text x="196.0" y="65" font-size="5.6" text-anchor="middle" font-style="italic" fill="#333">cube</text>
  <rect x="178" y="38" width="9" height="8" fill="#e8e8e8" stroke="#000" stroke-width="0.5"/>
  <rect x="190" y="38" width="9" height="8" fill="#e8e8e8" stroke="#000" stroke-width="0.5"/>
  <rect x="202" y="38" width="9" height="8" fill="#e8e8e8" stroke="#000" stroke-width="0.5"/>
  <text x="196.0" y="57" font-size="5.6" text-anchor="middle">× n tiles · unit m-tile</text>
  <path d="M162 42 L171 42" fill="none" stroke="#000" stroke-width="0.6" marker-end="url(#a)"/>
  <text x="166.5" y="39" font-size="5.6" text-anchor="middle" font-style="italic">m</text>
  <rect x="230" y="30" width="48" height="38" fill="none" stroke="#666" stroke-width="0.5" stroke-dasharray="2 1.4"/>
  <text x="254.0" y="26" font-size="6.4" text-anchor="middle">activation</text>
  <text x="254.0" y="65" font-size="5.6" text-anchor="middle" font-style="italic" fill="#333">vector</text>
  <rect x="236" y="38" width="9" height="8" fill="#e8e8e8" stroke="#000" stroke-width="0.5"/>
  <rect x="248" y="38" width="9" height="8" fill="#e8e8e8" stroke="#000" stroke-width="0.5"/>
  <rect x="260" y="38" width="9" height="8" fill="#e8e8e8" stroke="#000" stroke-width="0.5"/>
  <text x="254.0" y="57" font-size="5.6" text-anchor="middle">× n tiles · unit m-tile</text>
  <path d="M220 42 L229 42" fill="none" stroke="#000" stroke-width="0.6" marker-end="url(#a)"/>
  <text x="224.5" y="39" font-size="5.6" text-anchor="middle" font-style="italic">m</text>
  <rect x="288" y="30" width="48" height="38" fill="none" stroke="#666" stroke-width="0.5" stroke-dasharray="2 1.4"/>
  <text x="312.0" y="26" font-size="6.4" text-anchor="middle">gmm2</text>
  <text x="312.0" y="65" font-size="5.6" text-anchor="middle" font-style="italic" fill="#333">cube</text>
  <rect x="294" y="38" width="9" height="8" fill="#e8e8e8" stroke="#000" stroke-width="0.5"/>
  <rect x="306" y="38" width="9" height="8" fill="#e8e8e8" stroke="#000" stroke-width="0.5"/>
  <rect x="318" y="38" width="9" height="8" fill="#e8e8e8" stroke="#000" stroke-width="0.5"/>
  <text x="312.0" y="57" font-size="5.6" text-anchor="middle">× n tiles · unit m-tile</text>
  <path d="M278 42 L287 42" fill="none" stroke="#000" stroke-width="0.6" marker-end="url(#a)"/>
  <text x="282.5" y="39" font-size="5.6" text-anchor="middle" font-style="italic">m</text>
  <rect x="346" y="30" width="48" height="38" fill="none" stroke="#666" stroke-width="0.5" stroke-dasharray="2 1.4"/>
  <text x="370.0" y="26" font-size="6.4" text-anchor="middle">combine</text>
  <text x="370.0" y="65" font-size="5.6" text-anchor="middle" font-style="italic" fill="#333">reduce+write</text>
  <rect x="352" y="38" width="9" height="8" fill="#e8e8e8" stroke="#000" stroke-width="0.5"/>
  <rect x="364" y="38" width="9" height="8" fill="#e8e8e8" stroke="#000" stroke-width="0.5"/>
  <rect x="376" y="38" width="9" height="8" fill="#e8e8e8" stroke="#000" stroke-width="0.5"/>
  <text x="370.0" y="57" font-size="5.6" text-anchor="middle">× n tiles · unit expert</text>
  <path d="M336 42 L345 42" fill="none" stroke="#000" stroke-width="0.6" marker-end="url(#a)"/>
  <text x="340.5" y="39" font-size="5.6" text-anchor="middle" font-style="italic">expert</text>
  <text x="200" y="78" font-size="6.0" text-anchor="middle">one event per tile:  d(e) = max( MAC(e)/rate_cube ,  bytes(e)/BW(link) )   — compute and movement are two costs of the same event, not two boxes</text>
  <path d="M0 90 L396 90" fill="none" stroke="#bbb" stroke-width="0.4"/>
  <text x="2" y="104" font-size="7.6" text-anchor="start" font-style="italic">(b)</text>
  <text x="14" y="104" font-size="6.6" text-anchor="start">the list scheduler places each event on a resource; contention, colocation and buffer credits are what make time, not a formula</text>
  <text x="48" y="122.2" font-size="5.9" text-anchor="end">AIC 0</text>
  <path d="M52 125.5 L330 125.5" fill="none" stroke="#ccc" stroke-width="0.4"/>
  <rect x="52.0" y="116" width="71.84269662921349" height="9" fill="#d9d9d9" stroke="#000" stroke-width="0.5"/>
  <text x="87.92134831460675" y="122.2" font-size="5.4" text-anchor="middle">gmm1 t0</text>
  <rect x="133.2134831460674" y="116" width="68.71910112359551" height="9" fill="#d9d9d9" stroke="#000" stroke-width="0.5"/>
  <text x="167.57303370786516" y="122.2" font-size="5.4" text-anchor="middle">gmm2 t0</text>
  <rect x="208.17977528089887" y="116" width="78.08988764044943" height="9" fill="#d9d9d9" stroke="#000" stroke-width="0.5"/>
  <text x="247.22471910112358" y="122.2" font-size="5.4" text-anchor="middle">gmm1 t3</text>
  <text x="48" y="135.2" font-size="5.9" text-anchor="end">AIC 1</text>
  <path d="M52 138.5 L330 138.5" fill="none" stroke="#ccc" stroke-width="0.4"/>
  <rect x="61.37078651685393" y="129" width="71.84269662921349" height="9" fill="#d9d9d9" stroke="#000" stroke-width="0.5"/>
  <text x="97.29213483146069" y="135.2" font-size="5.4" text-anchor="middle">gmm1 t1</text>
  <rect x="142.58426966292134" y="129" width="71.84269662921349" height="9" fill="#d9d9d9" stroke="#000" stroke-width="0.5"/>
  <text x="178.5056179775281" y="135.2" font-size="5.4" text-anchor="middle">gmm2 t1</text>
  <rect x="220.6741573033708" y="129" width="78.08988764044943" height="9" fill="#d9d9d9" stroke="#000" stroke-width="0.5"/>
  <text x="259.7191011235955" y="135.2" font-size="5.4" text-anchor="middle">gmm1 t4</text>
  <text x="48" y="148.2" font-size="5.9" text-anchor="end">AIC 27</text>
  <path d="M52 151.5 L330 151.5" fill="none" stroke="#ccc" stroke-width="0.4"/>
  <rect x="70.74157303370787" y="142" width="71.84269662921349" height="9" fill="#d9d9d9" stroke="#000" stroke-width="0.5"/>
  <text x="106.66292134831461" y="148.2" font-size="5.4" text-anchor="middle">gmm1 t2</text>
  <rect x="151.95505617977528" y="142" width="71.84269662921349" height="9" fill="#d9d9d9" stroke="#000" stroke-width="0.5"/>
  <text x="187.87640449438203" y="148.2" font-size="5.4" text-anchor="middle">gmm2 t2</text>
  <rect x="230.04494382022472" y="142" width="68.71910112359551" height="9" fill="none" stroke="#999" stroke-width="0.5" stroke-dasharray="1.5 1.5"/>
  <text x="264.40449438202245" y="148.2" font-size="5.4" text-anchor="middle" font-style="italic" fill="#555">forced idle</text>
  <text x="48" y="161.2" font-size="5.9" text-anchor="end">AIV</text>
  <path d="M52 164.5 L330 164.5" fill="none" stroke="#ccc" stroke-width="0.4"/>
  <rect x="52.0" y="155" width="46.853932584269664" height="9" fill="#efefef" stroke="#000" stroke-width="0.5"/>
  <text x="75.42696629213484" y="161.2" font-size="5.4" text-anchor="middle">permute</text>
  <rect x="123.84269662921349" y="155" width="24.98876404494382" height="9" fill="#efefef" stroke="#000" stroke-width="0.5"/>
  <text x="136.3370786516854" y="161.2" font-size="5.4" text-anchor="middle">act t0</text>
  <rect x="155.07865168539325" y="155" width="24.98876404494382" height="9" fill="#efefef" stroke="#000" stroke-width="0.5"/>
  <text x="167.57303370786516" y="161.2" font-size="5.4" text-anchor="middle">act t1</text>
  <rect x="186.31460674157304" y="155" width="24.98876404494382" height="9" fill="#efefef" stroke="#000" stroke-width="0.5"/>
  <text x="198.80898876404495" y="161.2" font-size="5.4" text-anchor="middle">act t2</text>
  <text x="48" y="174.2" font-size="5.9" text-anchor="end">link</text>
  <path d="M52 177.5 L330 177.5" fill="none" stroke="#ccc" stroke-width="0.4"/>
  <rect x="52.0" y="168" width="62.47191011235955" height="9" fill="#fff" stroke="#000" stroke-width="0.5"/>
  <text x="83.23595505617978" y="174.2" font-size="5.4" text-anchor="middle">dispatch w0</text>
  <rect x="120.71910112359551" y="168" width="62.47191011235955" height="9" fill="#fff" stroke="#000" stroke-width="0.5"/>
  <text x="151.95505617977528" y="174.2" font-size="5.4" text-anchor="middle">dispatch w1</text>
  <rect x="239.41573033707866" y="168" width="78.08988764044943" height="9" fill="#fff" stroke="#000" stroke-width="0.5"/>
  <text x="278.4606741573034" y="174.2" font-size="5.4" text-anchor="middle">combine</text>
  <path d="M183.19101123595505 177 L183.19101123595505 123" fill="none" stroke="#444" stroke-width="0.5" stroke-dasharray="1.8 1.4"/>
  <path d="M183.19101123595505 123 L208.17977528089887 121" fill="none" stroke="#444" stroke-width="0.5" stroke-dasharray="1.8 1.4" marker-end="url(#a)"/>
  <text x="195.68539325842698" y="118" font-size="5.5" text-anchor="middle" font-style="italic" fill="#333">L1 slot released ⇒ next wave admitted</text>
  <path d="M52 182 L336 182" fill="none" stroke="#000" stroke-width="0.5"/>
  <text x="52" y="189" font-size="5.6" text-anchor="middle">0</text>
  <path d="M317.5056179775281 179 L317.5056179775281 185" fill="none" stroke="#000" stroke-width="0.5"/>
  <text x="317.5056179775281" y="189" font-size="5.8" text-anchor="middle">makespan  T̂ = max end(e)</text>
  <text x="338" y="180" font-size="5.8" text-anchor="start" font-style="italic">time</text>
  <text x="14" y="199" font-size="6.0" text-anchor="start">start(e) = least t ≥ max{ max</text>
  <text x="80" y="201" font-size="4.8" text-anchor="start">p∈P(e)</text>
  <text x="97" y="199" font-size="6.0" text-anchor="start">[ end(p)+λ(e,p) ] ,  max</text>
  <text x="173" y="201" font-size="4.8" text-anchor="start">r∈R(e)</text>
  <text x="190" y="199" font-size="6.0" text-anchor="start">free(r) } admitted by the credits A(e) still holds;  concrete resources take the max, pool placeholders the min (late binding).</text>
  <path d="M0 208 L396 208" fill="none" stroke="#bbb" stroke-width="0.4"/>
  <text x="2" y="222" font-size="7.6" text-anchor="start" font-style="italic">(c)</text>
  <text x="14" y="222" font-size="6.6" text-anchor="start">the schedule is only accepted if it sits above every shape-determined bound and leaves no recoverable idle</text>
  <path d="M60 248 L318 248" fill="none" stroke="#000" stroke-width="0.5"/>
  <text x="56" y="250.2" font-size="6.0" text-anchor="end" font-style="italic">cost</text>
  <path d="M84.0 243 L84.0 253" fill="none" stroke="#000" stroke-width="0.5"/>
  <text x="84.0" y="240" font-size="6.0" text-anchor="middle">LB</text>
  <text x="89.5" y="241.5" font-size="4.8" text-anchor="middle">compute</text>
  <text x="84.0" y="261" font-size="5.4" text-anchor="middle" font-style="italic" fill="#333">MAC / (28 · rate)</text>
  <path d="M146.39999999999998 243 L146.39999999999998 253" fill="none" stroke="#000" stroke-width="0.5"/>
  <text x="146.39999999999998" y="240" font-size="6.0" text-anchor="middle">LB</text>
  <text x="151.89999999999998" y="241.5" font-size="4.8" text-anchor="middle">bandwidth</text>
  <text x="146.39999999999998" y="261" font-size="5.4" text-anchor="middle" font-style="italic" fill="#333">bytes / BW</text>
  <path d="M208.8 243 L208.8 253" fill="none" stroke="#000" stroke-width="0.5"/>
  <text x="208.8" y="240" font-size="6.0" text-anchor="middle">LB</text>
  <text x="214.3" y="241.5" font-size="4.8" text-anchor="middle">chain</text>
  <text x="208.8" y="261" font-size="5.4" text-anchor="middle" font-style="italic" fill="#333">longest d-weighted path</text>
  <path d="M276.0 239 L276.0 253" fill="none" stroke="#000" stroke-width="0.8"/>
  <text x="276.0" y="236" font-size="7.0" text-anchor="middle">T̂</text>
  <text x="276.0" y="261" font-size="5.4" text-anchor="middle" font-style="italic" fill="#333">reported makespan</text>
  <path d="M208.8 245.5 L276.0 245.5" fill="none" stroke="#000" stroke-width="0.5"/>
  <text x="242.4" y="243.5" font-size="5.4" text-anchor="middle" font-style="italic">orchestration cost</text>
  <text x="322" y="250.2" font-size="5.6" text-anchor="start">the three bounds move only with the shape;</text>
  <text x="322" y="257" font-size="5.6" text-anchor="start">T̂ below any of them ⇒ BoundViolation</text>
  <rect x="4" y="262" width="182" height="34" fill="none" stroke="#666" stroke-width="0.5" stroke-dasharray="2.5 1.5"/>
  <text x="10" y="272" font-size="5.9" text-anchor="start">idle on a pooled role is split per core:</text>
  <text x="10" y="280" font-size="5.9" text-anchor="start">forced  (no ready work existed)  — admissible</text>
  <text x="10" y="288" font-size="5.9" text-anchor="start">avoidable  (ready work existed)  ⇒ WorkConservationViolation</text>
  <rect x="196" y="262" width="196" height="34" fill="none" stroke="#666" stroke-width="0.5" stroke-dasharray="2.5 1.5"/>
  <text x="202" y="272" font-size="5.9" text-anchor="start">colocation-pinned roles are excluded by derivation,</text>
  <text x="202" y="280" font-size="5.9" text-anchor="start">not by exception: a role carrying colocate_with or</text>
  <text x="202" y="288" font-size="5.9" text-anchor="start">core_group cannot take the ready tile it sees.</text>
  <rect x="96" y="308" width="204" height="18" fill="none" stroke="#000" stroke-width="0.6"/>
  <text x="198" y="319.5" font-size="6.0" text-anchor="middle">change exactly one knob — tile size, wave split, steal driver, binding — and re-run</text>
  <path d="M96 317 L60 317" fill="none" stroke="#444" stroke-width="0.6" stroke-dasharray="2.5 1.5" marker-end="url(#ag)"/>
  <path d="M60 317 L40 317" fill="none" stroke="#444" stroke-width="0.6" stroke-dasharray="2.5 1.5"/>
  <path d="M40 317 L40 56" fill="none" stroke="#444" stroke-width="0.6" stroke-dasharray="2.5 1.5"/>
  <path d="M40 56 L46 49" fill="none" stroke="#444" stroke-width="0.6" stroke-dasharray="2.5 1.5" marker-end="url(#ag)"/>
  <path d="M300 317 L320 317" fill="none" stroke="#444" stroke-width="0.6" stroke-dasharray="2.5 1.5"/>
  <path d="M320 317 L320 262" fill="none" stroke="#444" stroke-width="0.6" stroke-dasharray="2.5 1.5" marker-end="url(#ag)"/>
  <text x="198" y="334" font-size="6.0" text-anchor="middle">ΔT̂ between two runs is the cost of that one choice; the bounds and the idle test hold for both, so the difference is comparable and not an artefact of the simulator.</text>
  <text x="198" y="344" font-size="6.0" text-anchor="middle">No run is calibrated against the other: both are scheduled from the same declarations, so a win here is a win in the orchestration, not in the fit.</text>
</svg>
